P2
130 130
255
0 0 0 0 0 0 255 0 0 0 0 0 0 0 255 0 0 0 0 0 0 0 0 0 0 0 0 0 0 0 0 0 0 0 0 0 0 0 0 0 0 0 0 0 0 0 0 0 0 0 0 0 0 0 0 0 0 0 0 0 0 0 0 0 0 0 0 0 0 0 0 0 0 0 0 0 0 0 0 0 0 0 0 0 0 0 0 0 0 0 0 0 0 0 0 0 0 0 255 255 0 0 0 0 0 0 255 0 0 0 0 0 0 0 0 0 0 0 0 0 0 255 0 0 0 0 0 0 0 0
0 0 0 0 0 0 0 0 0 0 0 0 0 0 0 0 0 0 0 0 0 0 0 0 255 0 0 0 0 0 0 0 0 0 0 0 0 0 0 0 0 0 0 0 0 0 0 0 0 0 0 0 0 0 0 0 0 0 0 0 0 255 0 0 0 0 0 0 0 0 0 0 0 0 0 0 0 0 0 0 0 0 0 0 0 0 0 0 0 0 0 0 0 0 0 0 0 0 0 0 0 0 0 0 0 0 0 0 0 0 0 0 0 0 0 0 0 0 0 0 0 0 0 0 0 0 0 0 0 0
0 0 0 255 0 0 0 0 0 0 0 0 0 255 0 0 0 255 0 0 0 0 0 255 255 0 0 255 0 0 0 255 0 0 0 0 0 0 255 0 0 0 0 0 0 0 0 0 0 0 0 0 0 0 0 0 0 0 0 0 0 0 0 0 0 0 0 0 0 0 0 0 0 0 0 0 0 0 0 0 0 255 0 0 0 0 0 0 0 0 0 0 0 0 0 0 0 0 255 0 0 0 0 0 0 0 0 0 0 0 0 0 0 0 0 0 0 0 255 0 0 0 0 255 0 0 0 0 255 0
0 0 0 0 0 0 0 0 0 0 0 0 0 0 0 0 0 0 0 0 255 0 0 0 255 0 0 0 255 0 255 0 0 0 0 0 0 0 0 0 0 0 0 255 0 0 0 0 0 0 0 0 0 0 0 0 0 0 0 0 0 0 0 0 0 0 0 0 0 0 0 0 0 0 0 0 0 0 255 0 0 0 0 0 0 0 0 0 0 0 0 0 0 255 0 0 0 0 255 0 0 0 0 0 0 0 0 0 0 0 0 0 0 0 0 0 0 0 0 0 0 0 0 0 0 0 0 0 0 0
0 0 0 0 0 0 0 0 0 0 0 0 0 0 0 0 0 0 0 0 0 0 0 0 0 0 0 0 0 0 0 0 0 0 0 0 0 0 0 0 0 0 0 127 127 127 127 127 127 127 127 127 127 127 127 127 127 127 127 127 127 127 127 127 127 127 127 127 127 255 0 0 0 0 0 0 0 0 0 0 0 0 0 0 0 0 0 0 0 0 0 0 0 0 0 0 0 0 0 0 0 0 255 0 0 0 0 0 0 0 0 0 0 0 0 0 0 0 0 0 0 0 0 0 0 0 0 0 0 0
0 0 0 0 0 0 0 0 255 0 0 0 0 0 0 0 0 0 0 0 0 255 0 0 0 0 0 0 255 0 0 0 0 0 0 0 0 0 0 0 0 0 0 127 0 255 0 0 0 0 0 0 0 0 0 0 0 0 0 0 0 0 0 0 255 0 0 0 127 0 0 0 0 0 0 0 0 0 0 0 0 0 0 0 0 0 0 0 0 0 0 0 0 0 0 0 0 0 0 0 0 0 0 0 0 0 0 0 0 0 0 0 0 255 0 0 0 0 0 0 0 0 0 0 0 0 0 0 0 255
0 0 0 0 0 0 0 0 0 0 0 0 0 0 0 0 0 0 0 255 0 0 0 0 0 0 0 0 0 255 0 0 0 0 0 0 0 0 0 0 0 0 0 127 0 0 0 0 0 0 0 0 0 0 0 0 0 0 0 0 0 0 0 0 0 0 0 0 127 0 0 0 0 0 0 0 0 0 0 0 0 0 0 0 0 0 0 0 0 0 255 255 0 0 0 0 0 0 0 0 0 0 0 0 0 0 0 0 0 0 0 0 0 0 0 0 0 0 0 0 0 0 0 0 0 0 0 0 0 0
0 0 0 0 0 0 0 0 0 255 0 0 0 0 0 0 0 0 0 0 255 0 0 0 0 0 0 255 255 0 0 0 0 0 0 0 0 0 0 0 0 0 255 127 255 0 0 0 0 0 0 0 0 0 0 0 0 0 0 0 255 0 0 0 0 0 0 0 127 0 0 0 0 0 0 0 0 0 0 0 0 0 0 0 0 0 0 0 0 0 0 0 0 255 255 0 0 0 0 0 0 0 0 0 0 0 0 0 0 0 0 0 255 0 0 0 0 0 0 0 0 0 0 0 0 0 0 0 0 0
0 0 0 0 0 0 0 0 0 127 127 127 127 127 127 127 127 127 127 127 127 127 127 127 127 127 127 127 127 127 127 127 127 127 127 127 127 127 127 127 127 127 127 127 127 127 127 127 127 127 127 127 127 127 127 127 127 127 127 255 0 0 0 0 0 0 0 0 127 0 0 0 0 0 0 0 0 0 0 0 0 0 0 0 0 0 0 0 0 0 0 255 0 0 0 0 0 0 0 0 0 0 0 0 0 0 0 0 0 0 255 255 0 0 0 0 0 0 255 255 0 0 0 0 0 255 0 0 0 0
0 0 0 0 0 0 0 0 0 127 0 0 0 0 0 0 0 0 0 255 0 0 0 0 0 0 0 0 0 0 0 0 0 0 0 0 0 0 0 0 0 0 0 127 0 0 0 0 0 0 0 0 0 0 0 0 0 0 127 0 0 0 0 255 255 0 0 0 127 0 0 0 0 0 0 0 0 0 0 0 255 0 0 0 0 0 255 0 0 0 0 0 0 255 0 0 0 0 0 0 0 0 0 0 0 0 255 0 0 0 0 0 0 0 0 0 0 255 0 0 0 0 0 0 0 0 0 0 0 0
0 0 0 0 0 0 0 0 0 127 0 0 0 0 0 255 0 0 0 0 0 0 0 0 0 0 0 0 0 0 0 0 0 0 0 0 0 0 0 0 255 0 0 127 255 0 0 0 0 255 0 0 0 0 0 0 0 0 127 0 0 0 0 0 127 127 127 127 127 127 127 127 127 127 127 127 127 127 127 127 127 127 127 127 127 127 127 127 127 127 127 127 127 127 127 127 255 0 255 0 0 0 0 0 0 255 0 0 0 0 0 0 0 0 0 0 0 0 255 0 0 0 0 0 0 0 0 0 0 0
0 0 0 0 0 0 0 0 255 127 0 0 0 0 0 0 0 0 0 0 0 0 255 0 0 0 0 0 0 0 0 0 0 0 0 0 0 0 0 0 0 0 0 127 0 0 0 0 0 0 255 0 0 255 0 0 0 0 127 0 0 0 0 0 127 0 0 0 127 0 0 0 0 0 0 0 0 0 0 0 0 0 0 0 0 0 0 0 0 0 0 255 0 0 0 127 0 0 0 0 0 0 0 0 0 0 0 0 0 0 0 0 0 0 0 0 0 0 0 0 0 0 0 0 0 0 0 0 0 0
0 0 0 0 0 0 255 0 0 127 0 0 0 255 0 0 0 0 255 0 0 0 0 0 0 0 0 0 0 0 0 0 0 255 0 0 0 0 0 0 0 0 0 127 0 0 0 0 0 255 0 0 0 255 0 0 0 0 127 0 0 0 0 0 127 0 0 0 127 255 0 0 0 0 0 0 0 255 0 0 0 0 0 0 0 0 0 0 0 0 0 0 0 0 0 127 0 0 0 0 0 0 0 0 0 0 0 0 0 0 0 0 0 0 0 0 0 0 0 0 0 0 0 0 0 0 0 0 0 255
0 0 0 0 0 0 0 0 0 127 255 0 0 127 127 127 127 127 127 127 127 127 127 255 0 0 255 0 0 0 0 0 255 0 0 0 0 0 0 0 0 0 0 127 0 0 0 0 0 0 0 0 0 0 0 255 0 0 127 0 0 0 0 0 127 255 0 0 127 0 0 0 0 0 0 0 0 0 0 0 0 0 0 0 0 0 0 0 0 0 0 0 0 255 0 127 0 0 0 0 0 0 0 0 255 0 0 0 0 0 0 0 0 0 0 0 0 0 0 0 0 0 0 0 0 0 0 0 0 0
255 0 0 0 0 0 0 0 0 127 0 0 0 127 0 0 0 0 0 0 0 0 127 0 0 0 127 127 127 127 127 127 127 127 127 127 127 127 127 127 127 127 127 127 127 127 127 127 127 127 127 127 127 127 127 127 127 127 127 127 127 127 127 127 127 127 127 127 127 127 127 127 127 127 127 127 127 127 127 127 255 0 255 0 0 0 0 255 0 0 0 0 0 0 0 127 0 0 0 0 0 255 255 255 0 0 0 0 0 0 0 0 0 0 0 0 0 0 0 0 0 0 255 0 0 0 0 0 0 0
0 0 0 0 0 255 0 255 0 127 0 0 255 127 0 0 0 0 0 0 0 0 127 0 0 0 127 0 0 0 0 0 0 0 0 0 0 0 0 0 0 0 0 127 0 0 0 0 0 255 0 0 0 0 0 0 0 0 127 0 0 0 0 0 127 0 0 0 127 0 0 0 0 0 0 0 0 0 255 127 0 0 0 0 0 0 0 0 0 0 0 0 0 0 255 127 0 0 0 0 0 0 127 127 127 127 127 127 127 127 127 127 127 127 127 127 127 127 127 255 0 0 0 0 255 0 0 0 0 0
0 0 0 0 255 0 0 0 0 127 0 255 0 127 0 0 0 0 0 0 0 0 127 0 0 0 127 0 255 0 0 0 0 0 0 0 0 0 0 0 0 0 0 127 0 0 0 0 0 255 0 0 0 0 0 0 0 0 127 0 0 0 0 0 127 0 0 0 127 255 0 0 0 0 0 0 0 0 0 127 0 0 255 0 0 0 0 0 0 0 0 0 0 0 0 127 0 0 0 255 0 0 127 0 0 0 0 0 0 0 0 0 0 0 0 0 0 0 127 0 0 0 0 0 0 0 0 0 0 0
255 0 0 0 127 127 127 127 127 127 127 127 127 127 127 127 127 127 127 127 255 0 127 0 0 0 127 0 0 0 0 0 0 0 0 0 0 0 0 0 0 0 0 127 0 0 0 0 0 0 255 0 255 0 0 0 255 0 127 0 0 0 0 0 127 0 0 0 127 0 255 0 0 0 0 0 0 0 0 127 0 0 0 0 0 0 0 0 0 0 0 0 0 255 0 127 0 0 0 0 0 0 127 0 0 0 0 0 0 0 0 0 0 0 0 255 0 0 127 0 0 0 0 0 0 0 0 0 0 0
0 0 0 0 127 0 0 0 0 127 0 0 0 127 0 0 0 255 0 127 0 0 127 0 0 0 127 0 0 0 0 0 0 255 0 0 0 0 0 0 0 0 0 127 0 0 0 0 0 0 0 0 0 0 0 0 0 0 127 0 0 0 0 0 127 0 255 0 127 255 255 0 0 255 0 0 0 0 0 127 0 0 0 0 0 0 0 0 255 0 0 0 0 0 0 127 255 0 0 0 0 0 127 0 0 0 0 0 0 0 0 0 0 0 0 0 0 0 127 0 0 0 0 0 0 0 0 0 0 0
0 0 0 0 127 0 0 0 0 127 0 0 0 127 0 0 0 127 127 127 127 127 127 127 127 127 127 127 127 127 127 127 127 127 127 127 127 127 127 127 127 127 127 127 127 127 127 127 127 127 127 127 127 255 255 0 255 0 127 0 0 0 0 0 127 0 127 127 127 127 127 127 127 127 127 127 127 127 127 127 127 127 127 127 127 127 127 127 127 127 127 127 127 127 255 127 0 0 0 0 0 0 127 0 0 0 0 0 255 0 0 0 0 0 0 0 0 0 127 0 0 0 0 0 0 0 0 0 0 0
0 0 0 255 127 0 0 0 0 127 0 0 0 127 0 0 0 127 0 127 0 0 127 0 0 0 127 0 0 0 0 0 0 255 0 0 0 0 0 0 0 0 0 127 0 0 0 0 0 0 0 0 127 0 0 0 0 0 127 0 0 0 0 0 127 0 127 0 127 0 0 0 0 0 0 0 0 0 0 127 0 0 0 0 0 0 0 0 0 0 0 0 0 127 0 127 0 0 0 0 0 0 127 0 0 0 0 0 0 0 0 0 0 0 0 0 0 0 127 0 0 0 0 0 0 0 0 0 0 0
255 0 255 255 127 127 127 127 127 127 127 127 127 127 127 127 127 127 127 127 127 127 127 0 0 0 127 0 0 0 0 0 0 0 0 0 0 0 0 0 0 0 0 127 0 255 0 0 0 0 255 0 127 255 0 0 0 0 127 0 0 0 0 0 127 0 127 0 127 0 0 0 0 0 0 0 0 0 0 127 0 0 0 0 255 0 0 0 0 0 0 255 0 127 0 127 0 0 0 0 0 0 127 0 0 0 0 0 0 0 0 0 0 0 0 0 0 0 127 0 0 0 0 0 0 0 255 0 0 0
0 0 0 0 0 0 0 0 0 127 0 0 0 127 0 0 0 127 0 127 0 0 255 0 0 0 127 0 0 0 0 0 255 255 0 0 0 0 0 0 0 0 0 127 0 127 127 127 127 127 127 127 127 127 127 127 127 127 127 127 127 127 127 127 127 127 127 127 127 127 127 255 0 0 0 0 0 0 0 127 0 0 0 0 0 0 0 0 0 0 0 0 0 127 255 127 0 255 0 0 0 0 127 0 0 0 0 0 255 0 0 0 0 0 0 0 0 0 127 0 0 0 0 0 255 0 0 0 0 255
0 255 0 0 0 0 0 0 0 127 0 0 0 127 0 0 0 127 0 127 0 0 0 0 0 0 127 0 0 0 0 0 127 127 127 127 127 127 127 127 127 127 127 127 127 127 127 127 127 127 127 127 127 127 127 127 255 0 127 0 0 255 0 0 127 0 127 0 127 0 127 0 0 0 0 0 0 0 0 127 0 0 0 0 0 0 0 0 0 0 0 0 0 127 0 127 0 0 0 0 255 0 127 0 0 0 0 0 0 0 0 0 0 0 0 0 255 0 127 0 0 255 0 0 0 0 0 0 0 0
0 0 0 0 0 0 0 0 0 127 0 0 255 127 0 0 0 127 0 127 0 0 0 0 0 0 127 0 0 0 0 0 127 0 0 0 0 0 0 0 0 0 0 127 255 127 0 0 0 0 0 0 127 0 0 127 0 0 127 0 0 127 127 127 127 127 127 127 127 127 127 127 127 127 127 127 127 127 127 127 127 127 127 127 127 127 127 127 127 127 127 127 127 127 127 127 127 127 127 127 255 0 127 0 0 0 0 0 0 0 0 0 0 0 0 0 0 0 127 0 0 0 0 0 0 0 0 0 0 0
0 0 0 0 0 0 0 0 0 127 0 0 0 127 0 0 0 127 0 127 0 0 0 0 0 0 127 0 0 0 0 0 127 0 0 0 0 0 0 0 0 0 0 127 0 127 0 0 0 0 0 0 127 0 0 127 0 0 127 0 0 127 0 0 127 0 127 0 127 0 127 0 0 0 0 0 0 255 0 127 0 0 0 0 0 0 0 0 0 0 0 0 0 127 0 127 0 0 0 127 0 0 127 0 0 0 0 0 0 0 0 0 0 0 0 0 0 0 127 0 0 0 0 0 0 0 0 0 0 0
0 0 255 0 0 0 255 0 0 127 0 0 255 127 127 127 127 127 127 127 127 127 127 127 127 127 127 127 127 127 127 127 127 127 127 127 127 127 127 127 127 127 127 127 127 127 127 127 127 127 127 127 127 127 127 127 127 127 127 127 127 127 127 127 127 127 127 127 127 127 127 127 127 127 127 127 127 127 127 127 127 127 127 127 127 127 127 127 127 127 127 127 127 127 0 127 0 0 0 127 0 0 127 0 0 0 0 0 255 0 0 0 0 0 0 0 0 0 127 0 0 0 0 0 0 0 0 0 0 0
0 0 0 0 0 0 127 127 127 127 127 127 127 127 127 127 127 127 127 127 127 127 127 127 127 127 127 127 127 127 127 127 127 127 127 127 127 127 127 127 127 127 127 127 127 127 127 127 255 0 255 0 127 0 0 127 0 0 127 0 0 127 0 0 127 0 127 0 127 0 127 0 0 0 255 0 0 0 0 127 0 0 0 0 0 0 0 0 0 0 0 0 0 255 0 127 0 0 0 127 0 0 127 0 0 0 255 0 0 0 0 0 0 0 0 0 0 0 127 0 0 0 0 0 0 0 0 0 0 0
0 0 0 0 0 0 127 0 0 127 0 0 0 0 0 255 0 127 0 127 0 0 0 0 0 0 127 0 0 255 0 0 127 0 0 0 0 0 0 0 0 0 0 127 0 127 0 127 0 0 0 255 127 0 0 127 0 0 127 0 0 127 0 0 127 0 127 0 127 0 127 0 0 0 127 127 127 127 127 127 127 127 127 127 127 127 127 127 127 127 127 127 127 127 127 127 127 127 127 127 127 127 127 127 127 127 127 127 255 0 0 0 0 0 0 0 0 0 127 255 0 0 0 0 0 0 0 255 0 0
0 0 0 0 0 0 127 0 0 127 0 0 0 0 0 0 0 127 0 127 0 0 0 0 0 0 127 0 0 0 0 0 127 0 0 255 0 0 0 0 0 0 0 127 0 127 255 127 0 0 0 0 127 255 0 127 0 0 127 0 0 127 0 0 127 0 127 0 127 0 127 0 0 0 127 0 0 0 0 127 0 0 0 0 0 0 0 0 0 0 0 0 0 0 0 127 0 0 255 127 0 0 127 0 255 0 0 127 0 0 0 0 0 0 0 0 0 0 127 0 0 0 0 0 0 0 0 0 0 0
0 0 0 0 0 0 127 0 0 127 0 0 0 255 0 0 0 127 0 127 0 0 0 0 0 0 127 0 255 0 0 0 127 0 0 0 0 0 0 0 255 255 0 127 0 127 127 127 127 127 127 127 127 127 127 127 127 127 127 127 127 127 127 127 127 127 127 127 127 127 127 127 127 127 127 127 127 127 127 127 127 127 127 127 127 127 127 127 127 127 127 127 127 127 127 127 127 127 127 127 127 127 127 127 127 127 127 127 127 127 127 127 127 127 127 127 255 0 127 0 0 0 255 0 0 0 0 0 0 0
0 0 0 0 0 0 127 0 0 127 0 0 0 255 0 0 0 127 0 127 0 0 0 0 0 0 127 0 0 255 0 0 127 0 0 0 0 0 255 0 0 0 0 127 0 127 127 127 0 0 0 0 127 0 0 127 0 0 127 0 0 127 0 0 127 0 127 0 127 0 127 0 0 0 127 0 0 0 0 127 0 0 0 0 0 0 0 0 0 0 0 0 0 0 0 127 0 0 0 127 0 0 127 0 255 0 0 127 0 0 0 0 255 0 0 127 0 0 127 0 0 0 0 0 0 0 0 0 0 0
0 255 0 0 0 0 127 0 0 127 0 0 0 0 0 0 0 127 0 127 0 0 0 0 0 0 127 0 0 0 0 0 127 0 0 0 0 0 0 0 0 0 0 127 0 127 127 127 0 0 0 0 127 0 0 127 0 0 127 0 0 127 0 0 127 255 127 0 127 0 127 0 0 0 127 0 0 0 0 127 0 0 0 0 0 0 0 0 0 0 0 0 0 0 0 127 0 0 0 127 0 0 127 0 0 0 0 127 0 0 0 0 0 0 0 127 0 0 127 0 0 0 0 0 0 0 0 0 255 0
0 255 0 0 0 0 127 0 255 127 127 127 127 127 127 127 127 127 127 127 255 0 0 0 0 0 127 0 0 0 0 0 127 0 0 0 0 0 0 0 0 0 0 127 0 127 127 127 0 0 0 0 127 0 0 127 0 0 127 0 0 127 0 0 127 0 127 0 127 0 127 0 0 0 127 0 0 0 0 127 0 0 0 255 255 0 0 0 0 0 0 0 0 0 0 127 0 0 0 127 0 0 127 0 0 0 0 127 0 0 0 0 0 0 0 127 0 0 127 0 0 0 0 0 0 0 0 0 0 0
0 0 0 0 0 0 127 0 0 0 0 0 0 0 0 0 0 127 0 255 0 0 0 0 0 0 127 0 0 0 0 0 127 0 0 0 0 0 0 0 0 0 0 127 0 127 127 127 0 0 0 0 127 0 0 127 0 255 127 0 0 127 255 0 127 0 127 0 127 0 127 0 0 0 127 0 0 0 0 127 0 0 0 0 0 0 0 255 0 0 0 0 0 0 0 127 0 0 0 127 0 0 127 0 0 0 0 127 0 0 0 0 0 0 0 127 255 0 127 0 0 0 0 0 255 255 255 0 0 0
0 0 0 0 0 255 127 0 0 255 0 0 0 0 0 255 0 127 0 0 0 0 0 0 0 0 127 0 0 0 0 0 127 0 0 0 0 0 255 0 0 0 0 127 0 127 127 127 0 0 0 0 127 0 0 127 0 0 127 0 0 127 0 0 127 0 127 0 127 0 127 0 0 0 127 0 255 0 0 127 0 0 0 0 0 0 0 0 0 0 0 0 0 0 0 127 0 0 0 127 0 0 127 0 0 0 0 127 255 0 0 0 0 0 0 127 0 0 127 0 0 0 0 0 0 0 0 0 0 0
0 0 0 0 0 0 127 0 0 0 0 0 0 0 0 0 0 127 0 0 0 0 255 0 0 0 127 255 0 0 0 255 127 0 0 0 0 0 0 0 255 0 0 127 0 127 127 127 0 255 0 0 127 0 0 127 0 0 127 0 0 127 0 0 127 0 127 0 127 0 127 0 0 0 127 0 0 255 0 127 0 0 0 0 0 0 0 0 0 0 0 0 0 255 0 127 0 0 0 127 0 0 127 0 0 0 0 127 0 0 0 0 0 0 0 127 0 0 127 0 0 255 0 0 0 0 255 0 0 0
0 0 255 0 0 255 127 0 0 0 0 0 0 0 0 0 0 127 0 0 0 0 0 0 0 0 127 0 0 0 0 0 127 0 0 0 0 0 0 0 0 0 0 127 0 127 127 127 0 127 127 127 127 127 127 127 127 127 127 127 127 127 127 127 127 127 127 127 127 127 127 127 127 127 127 127 127 127 127 127 127 127 127 127 127 127 255 0 0 0 0 0 0 0 0 127 0 0 0 127 0 0 127 0 0 0 0 127 0 0 0 0 0 0 0 127 0 0 127 0 0 0 0 0 0 0 0 0 0 0
0 0 0 0 0 255 127 0 0 0 0 0 255 0 255 0 0 127 0 0 0 0 0 0 0 0 127 0 0 0 0 0 127 0 0 0 0 0 0 0 0 0 0 127 0 127 127 127 0 127 0 0 127 0 255 127 0 0 127 0 0 127 0 0 127 255 127 127 127 127 127 127 127 127 127 127 127 127 127 127 127 127 127 127 127 127 127 127 127 127 127 127 127 127 127 127 127 127 127 127 127 127 127 127 127 127 127 127 127 127 127 127 127 127 127 127 127 127 127 0 0 0 0 0 0 0 0 0 0 0
0 0 0 0 0 0 127 0 0 0 255 0 0 0 127 127 127 127 127 127 127 127 127 127 127 127 127 127 127 127 127 127 127 127 255 0 0 0 0 0 0 0 0 127 0 127 127 127 255 127 255 0 127 0 0 127 0 0 127 255 255 127 0 0 127 0 0 0 127 0 127 0 0 0 127 0 0 0 0 127 0 0 0 0 0 127 0 0 0 0 0 0 0 0 0 127 0 0 0 127 0 0 127 0 0 0 0 127 0 0 0 0 0 0 0 127 0 0 255 0 0 0 0 0 0 0 0 0 0 0
255 255 0 0 0 0 127 0 0 0 255 255 0 255 127 0 0 127 0 0 0 0 0 0 0 0 127 0 0 0 0 0 127 127 255 0 0 0 255 0 0 0 0 127 0 127 127 127 0 127 0 0 127 0 0 127 0 0 127 127 127 127 127 127 127 127 127 127 127 127 127 127 127 127 127 127 127 127 127 127 127 127 127 127 127 127 127 127 127 127 255 0 255 255 0 127 0 0 0 127 255 0 127 0 0 0 0 127 0 0 0 0 0 0 0 127 0 0 0 0 255 0 0 0 0 0 0 0 0 0
0 0 0 0 0 0 127 0 0 0 0 255 0 0 127 0 0 127 0 0 0 0 0 0 0 0 127 0 255 0 255 0 127 127 0 0 0 0 0 0 0 0 255 127 0 127 127 127 0 127 0 0 127 0 0 127 0 0 127 127 0 127 0 0 127 255 0 0 127 0 127 0 0 0 127 0 0 0 0 127 0 0 0 0 255 127 0 0 0 127 0 255 0 0 0 127 0 0 0 127 0 0 127 0 0 0 0 127 0 0 0 0 0 0 0 127 0 0 0 0 0 0 0 0 0 0 0 0 0 0
0 0 0 255 0 0 127 0 0 0 0 0 0 0 127 0 0 127 0 0 0 0 0 0 0 0 127 0 0 0 0 0 127 127 255 0 0 0 0 0 0 255 0 127 0 127 127 127 0 127 0 0 127 0 0 127 0 255 127 127 0 127 0 0 127 0 0 0 127 0 127 0 0 0 127 255 0 255 0 127 0 0 0 0 0 127 0 0 0 127 0 127 127 127 127 127 127 127 127 127 127 127 127 127 127 127 127 127 127 127 127 127 127 127 127 127 127 127 127 127 127 127 255 0 0 0 0 0 255 0
0 0 0 255 0 0 127 0 0 0 0 0 0 0 127 0 0 127 0 0 0 0 255 0 0 0 127 0 0 0 0 0 127 127 0 0 0 0 255 0 0 0 0 127 0 127 127 127 255 127 0 255 127 0 0 127 0 0 127 127 0 127 0 0 127 0 0 0 127 0 127 0 0 0 127 0 0 0 0 127 0 255 0 0 0 127 0 0 0 127 0 127 255 0 0 127 0 0 0 127 0 0 127 0 0 0 0 127 0 0 0 0 255 0 0 127 0 0 0 0 255 127 0 0 0 0 0 0 0 0
0 0 0 0 0 0 127 0 0 0 0 0 0 0 127 0 0 127 0 0 0 0 127 127 127 127 127 127 127 127 127 127 127 127 127 127 127 127 127 127 127 127 127 127 127 127 127 127 127 127 127 127 127 127 127 127 127 127 127 127 127 127 127 127 127 127 127 127 127 127 127 127 127 127 127 127 127 127 127 127 127 127 127 127 127 127 127 127 127 127 127 127 127 127 127 127 127 127 127 127 127 255 127 0 0 0 0 127 0 0 0 0 0 0 0 127 0 0 0 0 0 127 0 0 0 255 0 0 0 0
0 0 0 0 0 0 127 0 0 0 0 0 0 0 127 0 0 127 0 0 0 0 127 0 0 0 127 0 0 0 0 0 127 127 0 0 255 255 0 255 0 0 0 127 0 127 127 127 0 127 0 0 127 0 0 127 0 0 127 127 0 127 0 0 127 0 0 0 127 0 127 0 0 255 127 0 0 0 0 127 255 255 0 0 0 127 0 0 0 127 0 127 0 0 0 127 0 0 0 127 127 0 127 0 0 0 0 127 0 0 0 0 0 0 255 127 255 0 0 0 0 127 0 0 0 0 0 0 0 0
0 0 0 0 0 0 127 0 0 0 0 0 0 0 127 0 0 127 255 0 0 0 127 0 0 0 127 0 0 0 0 0 127 127 0 0 0 0 0 127 127 127 127 127 127 127 127 127 127 127 127 127 127 127 127 127 127 127 127 127 127 127 127 127 127 127 127 127 127 127 127 127 127 127 127 127 127 127 127 127 127 127 127 127 127 127 127 127 127 127 127 127 127 127 127 127 127 127 127 127 127 127 127 127 127 127 127 127 127 127 127 127 255 0 0 127 127 127 127 127 127 127 127 127 127 255 0 0 0 0
0 0 0 0 0 0 127 0 0 0 0 0 255 0 127 0 0 127 0 0 0 255 127 0 0 255 127 0 0 0 0 255 127 127 0 0 0 255 0 127 0 0 0 127 0 127 127 127 0 127 0 0 127 0 0 127 0 0 127 127 0 127 0 0 127 0 0 0 127 0 127 0 0 0 127 0 0 0 255 127 0 0 0 255 0 127 0 0 0 127 0 127 0 0 0 127 0 0 255 127 127 0 127 0 0 0 0 127 0 0 0 127 0 0 0 127 127 0 0 0 0 127 0 0 127 0 0 0 0 255
0 0 0 0 0 0 127 0 0 0 0 0 0 0 127 0 0 127 0 0 0 0 127 0 0 0 127 0 0 0 0 0 127 127 0 0 255 0 0 127 0 0 0 127 0 127 127 127 0 127 0 0 127 0 0 127 0 0 127 127 0 127 0 0 127 0 0 0 127 0 127 0 0 0 127 0 0 0 0 127 0 0 0 0 0 127 0 0 0 127 0 127 0 0 0 127 0 0 127 127 127 127 127 127 127 127 127 127 127 127 127 127 127 127 127 127 127 127 127 127 127 127 127 127 127 127 127 127 255 0
0 0 0 0 0 0 127 0 0 0 0 0 0 0 127 0 0 127 0 0 0 0 127 0 0 0 127 0 255 0 255 0 127 127 0 255 0 0 0 127 0 0 0 127 0 127 127 127 0 127 0 0 127 0 0 127 0 255 127 127 0 127 0 0 127 0 0 0 127 0 127 0 0 0 127 0 0 0 0 127 0 0 0 0 0 127 0 0 0 127 0 127 0 0 0 127 0 0 127 127 127 0 127 0 0 0 0 127 0 0 0 127 0 0 0 127 127 0 0 0 0 127 0 0 127 0 0 127 0 0
0 0 0 0 0 0 127 0 255 0 0 0 0 255 127 0 0 127 0 0 255 0 127 0 0 0 127 0 255 0 0 0 127 127 0 0 0 0 0 127 0 0 0 127 0 127 127 127 0 127 0 0 127 0 0 127 0 127 127 127 127 127 127 127 127 127 127 127 127 127 127 127 127 127 127 127 127 127 127 127 127 127 127 127 127 127 127 127 127 127 127 127 127 255 255 127 0 0 127 127 127 0 127 0 0 0 0 127 0 0 0 127 0 0 0 127 127 0 0 0 0 127 0 255 127 0 0 127 0 0
0 0 0 0 255 0 127 0 0 0 0 0 0 0 127 0 0 127 0 0 0 0 127 0 255 0 127 0 0 255 0 0 127 127 0 0 0 0 0 127 0 0 0 127 0 127 127 127 0 127 0 0 127 0 0 127 0 127 127 127 0 127 0 0 127 0 0 0 127 0 127 0 0 0 127 0 0 0 0 127 0 0 0 0 0 127 0 0 0 127 0 127 127 0 0 127 0 0 127 127 127 0 127 0 0 0 0 127 0 0 0 127 0 0 0 127 127 0 0 0 0 127 0 255 127 0 0 127 0 0
0 0 0 0 0 0 127 0 0 0 0 0 0 0 127 0 0 127 0 0 255 0 127 0 0 0 127 255 0 0 0 0 127 127 0 0 0 0 0 127 0 0 0 127 0 127 127 127 0 127 0 0 127 255 0 127 0 127 127 127 0 127 0 0 127 0 0 0 127 0 127 0 255 0 127 0 0 0 0 127 0 0 255 0 0 127 0 0 0 127 0 127 127 0 0 127 0 0 127 127 127 0 127 255 0 0 0 127 0 0 0 127 0 0 0 127 127 0 0 0 0 127 0 0 127 0 0 127 0 0
255 0 0 0 0 0 127 0 0 255 0 0 0 0 127 255 0 127 0 0 0 0 127 255 0 0 127 0 0 0 0 0 127 127 0 0 0 0 0 127 0 0 0 127 0 127 127 127 0 127 0 0 127 0 0 127 0 127 127 127 255 127 0 0 127 0 255 0 127 0 127 0 0 0 127 0 0 0 0 127 0 0 127 127 127 127 127 127 127 127 127 127 127 127 127 127 127 127 127 127 127 127 127 127 127 127 127 127 127 127 255 127 0 0 0 127 127 0 0 0 0 127 0 0 127 0 0 127 0 0
0 0 0 0 0 255 127 0 0 127 127 127 127 127 127 127 127 127 127 127 127 127 127 127 127 127 127 127 127 127 127 127 127 127 127 127 127 127 127 127 127 127 127 127 127 127 127 127 127 127 127 127 127 127 127 127 127 127 127 127 127 127 127 127 127 127 127 127 127 127 127 127 127 127 127 127 127 127 127 127 127 127 127 127 127 127 127 127 127 127 127 127 127 127 127 127 127 127 127 127 127 127 127 127 127 127 255 127 255 127 0 127 0 255 0 127 127 0 0 0 0 127 0 0 127 0 0 127 0 0
0 0 0 0 255 0 127 0 0 127 0 0 0 0 127 0 0 127 0 0 0 0 127 0 0 0 127 0 0 0 0 0 127 127 0 0 0 0 0 127 0 0 0 127 0 127 127 127 0 127 0 0 127 0 0 127 0 127 127 127 0 127 0 0 127 0 0 0 127 0 127 0 0 255 127 0 0 0 0 127 0 255 127 0 0 127 0 0 0 127 0 127 127 0 0 127 0 0 127 127 127 0 127 0 0 127 0 127 0 127 0 127 0 0 0 127 127 0 0 0 0 127 255 0 127 0 0 127 0 0
255 0 0 0 127 127 127 127 127 127 127 127 127 127 127 127 127 127 127 127 127 127 127 127 127 127 127 127 255 0 255 0 127 127 0 255 0 0 0 127 0 0 255 127 127 127 127 127 127 127 127 127 127 127 127 127 127 127 127 127 127 127 127 127 127 127 127 127 127 127 127 127 127 127 127 127 127 127 127 127 127 127 127 127 127 127 127 127 127 127 127 127 127 127 127 127 127 127 127 127 127 0 127 0 0 127 0 127 0 127 0 127 0 0 0 127 127 0 0 0 0 127 0 255 127 0 0 127 0 0
0 255 0 0 127 0 127 0 0 127 0 0 0 0 127 0 0 127 0 0 0 0 127 0 0 0 127 127 0 0 0 0 127 127 0 0 0 0 0 127 0 0 0 0 0 127 127 127 0 127 0 0 127 0 0 127 0 127 127 127 255 127 0 0 127 0 0 0 127 0 127 0 0 0 127 0 255 0 0 127 0 0 127 0 0 127 0 0 0 127 0 127 127 0 0 127 0 0 127 255 127 0 127 0 0 127 0 127 0 127 0 127 0 0 0 127 127 0 0 0 0 127 0 0 127 0 0 127 0 255
0 0 255 0 127 255 127 255 0 127 0 0 0 0 127 0 0 127 0 0 0 0 127 0 0 0 127 127 0 0 0 0 127 127 0 0 0 0 0 127 0 0 0 255 0 127 127 127 0 127 0 255 127 0 0 127 0 127 127 127 0 127 0 0 127 0 0 255 127 0 127 0 255 0 127 0 0 0 0 127 0 0 127 0 0 127 0 0 0 127 0 127 127 255 0 127 0 0 127 0 127 0 127 0 0 127 0 127 0 127 0 127 0 0 0 127 127 0 0 0 0 127 0 0 127 0 255 127 0 0
0 0 0 0 127 0 127 0 0 127 0 0 0 0 127 0 0 127 0 0 0 0 127 0 0 255 127 127 127 127 127 127 127 127 127 127 127 127 127 127 127 127 127 127 127 127 127 127 127 127 127 127 127 127 127 127 127 127 127 127 127 127 127 127 127 127 127 127 127 127 127 127 127 127 127 127 127 127 127 127 127 127 127 127 127 127 127 127 127 127 127 127 127 127 127 127 127 127 127 127 127 127 127 127 127 127 127 127 0 127 0 127 0 0 0 127 127 0 0 0 0 127 0 0 127 0 0 127 0 0
0 0 0 0 127 0 127 0 0 127 0 0 0 0 127 0 0 127 0 0 0 0 127 0 0 0 0 127 0 0 0 0 127 127 0 255 0 0 0 127 0 0 0 0 0 127 127 127 0 127 0 0 127 0 0 127 0 127 127 127 0 127 0 255 127 0 0 0 127 0 127 0 0 0 127 255 0 0 255 127 0 0 127 0 0 127 0 0 0 127 255 127 127 0 0 127 0 0 127 0 127 0 127 0 0 127 0 255 0 127 0 127 0 0 0 127 127 255 0 0 0 127 0 0 127 0 0 127 0 0
0 0 0 0 127 0 127 0 0 127 0 0 0 0 127 0 0 127 0 0 0 0 127 0 0 0 0 127 0 0 0 0 127 127 0 0 0 0 255 127 0 0 0 0 0 127 127 127 0 127 0 0 127 0 255 127 0 127 127 127 0 127 0 0 127 0 0 0 127 0 127 0 255 0 127 255 0 0 127 127 127 127 127 127 127 127 127 127 127 127 127 127 127 127 127 127 127 127 127 127 127 127 127 127 255 127 0 0 0 127 255 127 0 255 0 127 127 255 0 0 0 127 0 0 127 0 0 127 0 0
255 0 0 0 127 0 127 0 0 127 0 0 0 0 127 0 0 127 0 0 0 0 127 0 255 0 0 127 0 0 0 0 127 127 255 0 0 255 0 127 0 0 0 0 0 127 127 127 0 127 0 0 127 0 0 127 0 127 127 127 0 127 0 0 127 0 0 0 127 0 127 0 0 0 127 0 0 0 127 127 0 0 127 0 0 127 0 0 0 127 0 127 127 0 0 127 0 0 127 0 127 255 127 127 0 127 0 0 0 127 0 127 0 0 0 127 127 0 0 0 0 127 0 0 127 255 0 127 0 0
0 0 0 0 127 0 127 0 0 127 0 0 255 0 127 0 0 127 0 0 0 0 127 0 127 127 127 127 127 127 127 127 127 127 127 127 127 127 127 127 127 255 0 0 255 127 127 127 127 127 127 127 127 127 127 127 127 127 127 127 127 127 127 127 127 127 127 127 127 127 127 127 127 127 127 127 127 127 127 127 127 127 127 127 127 127 127 127 127 127 127 127 127 127 127 127 127 127 127 127 127 127 127 127 127 127 127 127 127 127 127 127 127 127 127 127 127 127 127 127 127 127 127 127 127 127 127 127 0 0
0 0 0 0 127 0 127 0 0 127 0 0 0 0 127 0 255 127 0 0 0 0 127 0 127 0 0 127 0 255 0 0 127 127 0 0 0 0 0 127 127 0 0 0 0 0 127 127 255 127 0 0 127 255 0 127 0 127 127 127 0 127 255 0 127 0 0 0 127 0 127 0 0 0 127 0 0 0 127 127 0 0 127 0 0 127 0 0 0 127 0 127 127 0 255 127 0 0 127 255 127 255 127 127 127 127 127 127 127 127 127 127 127 127 127 127 127 127 127 127 127 127 0 0 127 255 0 255 0 0
0 0 0 0 127 0 127 0 0 127 0 0 0 0 127 0 0 127 0 0 0 0 127 0 127 0 0 127 0 127 127 127 127 127 127 127 127 127 127 127 127 127 127 127 127 127 127 127 127 127 127 127 127 127 127 127 127 127 127 127 127 127 127 127 127 127 127 127 127 127 127 127 127 255 127 0 0 0 127 127 0 0 127 0 0 127 0 0 0 127 0 127 127 0 255 127 0 0 127 0 127 0 0 127 0 127 0 0 0 127 0 127 0 0 0 127 127 0 0 0 0 255 0 0 127 0 0 0 0 0
0 0 0 0 127 0 127 0 0 127 0 0 0 0 127 0 0 127 0 0 0 0 127 0 127 0 0 127 0 127 0 0 127 127 0 0 0 0 0 127 127 0 0 0 0 0 127 127 0 127 0 0 127 255 0 127 0 127 127 127 0 127 0 0 127 0 0 0 127 255 127 0 127 0 127 0 0 0 127 127 0 0 127 0 0 127 0 0 0 127 0 127 127 0 0 127 0 0 127 0 127 0 0 127 0 127 0 0 0 127 255 127 0 0 0 127 127 255 0 0 0 0 0 0 127 0 0 0 0 0
0 0 0 0 127 0 127 0 0 127 255 255 0 0 127 0 0 127 0 0 0 0 127 0 127 0 0 127 0 127 255 255 127 127 0 0 0 0 0 127 127 0 0 0 0 0 127 127 0 127 0 0 127 0 0 127 0 127 127 127 0 127 0 0 127 0 0 0 127 127 127 127 127 127 127 127 127 127 127 127 127 127 127 127 127 127 127 127 127 127 127 127 127 127 127 127 127 127 127 127 127 127 127 127 127 127 127 127 127 127 127 127 127 127 127 127 127 127 127 127 127 127 127 127 127 127 127 255 0 0
0 0 0 0 127 0 127 0 0 127 0 0 0 0 127 0 0 127 255 0 0 0 127 0 127 0 0 127 0 127 0 0 127 127 0 0 0 0 0 127 127 0 0 0 0 0 127 127 0 127 0 0 127 0 0 127 0 127 127 127 255 127 0 255 127 0 0 0 127 127 127 0 127 0 127 0 0 0 127 127 0 0 127 0 0 127 255 0 0 127 0 127 127 0 0 127 255 0 127 0 127 0 255 127 0 127 0 0 255 127 0 127 0 0 0 127 127 0 0 0 0 0 0 0 127 0 127 0 0 0
0 0 255 0 127 0 127 0 0 127 0 0 0 0 127 0 0 127 0 0 0 0 127 0 127 0 0 127 0 127 0 0 127 127 0 0 0 0 0 127 127 0 0 0 0 0 127 127 0 127 0 0 127 0 0 127 0 127 127 127 0 127 0 0 127 0 0 0 127 127 127 0 127 0 127 0 255 0 127 127 0 0 127 0 0 127 0 0 0 127 0 127 127 0 0 127 0 0 127 0 127 0 0 127 0 127 0 0 0 127 0 127 255 0 0 127 127 0 0 0 0 0 0 0 127 0 127 0 0 255
0 0 0 0 127 0 127 0 0 127 0 0 0 0 127 0 0 127 0 0 0 0 127 0 127 0 0 127 0 127 0 255 127 127 127 127 127 127 127 127 127 127 127 127 127 127 127 127 127 127 127 127 127 127 127 127 127 127 127 127 127 127 127 127 127 127 127 127 127 127 127 127 127 127 127 127 127 127 127 127 127 127 127 127 127 127 127 127 127 127 127 127 127 127 127 127 0 0 127 0 127 0 0 127 0 127 0 0 0 127 0 127 0 0 0 127 127 0 0 0 0 0 0 0 127 0 127 0 0 0
0 0 255 0 127 0 127 0 0 127 0 0 0 255 127 0 255 127 127 127 127 127 127 127 127 127 127 127 127 127 127 127 127 127 127 127 127 127 127 127 127 127 127 127 127 127 127 127 127 127 127 127 127 127 127 127 127 127 127 127 127 127 127 127 127 127 127 127 127 127 127 0 127 0 127 0 0 0 127 127 0 0 127 0 0 127 0 0 0 127 0 127 127 0 0 255 0 0 127 0 127 0 0 127 0 127 0 0 0 127 0 127 0 0 0 127 127 0 0 0 255 0 0 0 127 0 127 0 0 0
0 0 0 0 127 0 127 0 0 127 0 255 0 255 127 0 0 0 0 0 0 0 127 0 127 0 0 127 0 127 0 0 0 127 0 0 0 0 0 127 127 0 0 0 0 0 127 127 0 127 0 0 127 0 0 127 0 127 127 127 0 127 0 0 127 0 0 0 127 127 255 0 127 0 127 0 255 0 127 127 0 0 127 0 0 127 0 0 0 127 0 127 127 0 0 0 0 0 127 0 127 0 255 127 0 127 0 0 0 127 0 127 0 0 0 127 127 0 0 0 0 0 0 0 127 0 127 0 0 0
0 0 0 0 127 0 127 0 0 127 0 0 0 0 127 0 0 0 0 0 0 0 127 0 127 0 0 127 0 127 0 0 0 127 0 0 0 0 0 127 127 0 0 255 0 0 127 127 0 127 255 0 127 0 0 127 0 127 127 127 0 127 0 0 127 0 0 0 127 127 0 0 127 0 127 0 0 0 127 127 0 0 127 0 0 127 0 0 0 127 0 127 127 0 0 0 0 0 127 0 127 0 0 127 0 127 0 0 0 127 0 127 0 0 0 127 127 0 0 0 0 0 0 0 127 0 127 0 0 0
0 0 0 0 127 0 127 0 0 127 0 0 0 0 127 0 0 0 0 0 0 0 127 255 127 0 0 127 0 127 0 0 0 127 0 0 0 0 0 127 127 0 0 0 0 0 127 127 0 127 0 0 127 0 0 127 0 127 127 127 0 127 0 0 127 0 0 0 127 127 0 0 127 0 127 0 0 0 127 127 0 0 127 0 0 127 0 0 0 127 0 127 127 0 0 0 0 0 127 0 127 0 0 127 0 127 0 0 0 127 0 127 0 0 0 127 127 0 0 0 255 255 0 0 127 0 127 0 0 0
0 0 0 0 127 255 127 0 0 127 0 0 0 0 127 0 0 0 0 0 0 255 127 127 127 127 127 127 127 127 127 127 127 127 127 127 127 127 127 127 127 127 127 127 127 127 127 127 127 127 127 127 127 127 127 127 127 127 127 127 127 127 127 127 127 127 127 127 127 127 127 127 127 127 127 127 127 127 127 127 0 0 127 0 0 127 0 0 0 127 0 127 127 0 0 0 0 0 127 0 127 0 0 127 0 127 255 0 0 127 0 127 0 0 255 127 127 0 0 0 0 0 0 0 127 0 127 0 0 0
0 255 0 255 127 127 127 127 127 127 127 127 127 127 127 127 127 127 127 127 127 127 127 127 127 127 127 127 127 127 127 127 127 127 0 0 0 255 0 127 127 0 0 0 0 0 127 127 0 127 0 0 127 0 0 127 0 127 127 127 0 127 255 0 127 0 0 0 127 127 0 0 127 0 127 0 0 0 127 255 0 0 127 0 0 127 0 0 0 127 0 127 127 0 0 255 0 0 127 0 127 0 255 127 0 127 0 0 0 127 0 127 0 0 0 127 127 0 0 0 0 0 0 0 127 0 127 0 0 0
0 0 0 0 0 0 127 0 255 127 0 0 0 0 127 0 0 255 0 0 0 0 0 0 127 0 0 127 0 127 0 0 0 255 0 0 0 0 0 127 127 0 0 0 0 0 127 127 0 127 0 0 127 0 0 127 0 127 127 127 0 127 0 0 127 0 0 0 127 127 0 0 127 0 127 0 0 0 127 0 0 0 127 0 0 127 0 255 0 127 0 127 127 0 255 0 0 0 127 0 127 0 0 127 0 127 0 0 0 127 0 127 0 0 0 127 127 0 0 0 0 0 0 0 127 0 127 0 255 0
0 0 0 0 0 0 127 0 0 127 0 0 0 0 127 0 0 0 0 0 0 255 0 0 127 0 0 127 0 127 0 0 0 0 0 255 0 0 255 127 127 127 127 127 127 127 127 127 127 127 127 127 127 127 127 127 127 127 127 63 127 127 127 127 127 127 127 127 127 127 127 127 127 127 127 127 127 127 127 127 127 127 127 127 127 127 127 127 127 127 127 127 127 127 127 127 127 127 127 127 127 127 127 127 0 127 0 0 0 127 0 127 0 0 0 127 127 0 0 0 0 0 0 0 127 0 127 0 0 0
0 0 0 0 0 0 127 0 0 127 0 255 0 0 127 0 0 0 0 0 0 127 127 127 127 127 127 127 127 127 127 127 127 127 127 127 127 127 127 127 127 127 127 127 127 127 127 127 127 127 127 127 127 127 127 127 127 127 127 127 127 127 127 127 127 127 127 127 127 127 127 127 127 127 127 127 127 127 127 127 127 127 127 127 127 127 127 255 0 127 0 127 127 0 0 255 255 0 127 0 127 0 0 255 0 127 0 0 0 127 0 127 0 0 0 127 127 255 0 0 0 0 0 0 127 0 127 0 0 0
0 0 0 0 0 0 127 0 0 127 255 0 0 0 127 0 0 0 0 0 0 127 0 0 127 0 0 127 0 127 0 0 0 0 0 0 0 0 0 0 127 0 0 0 0 0 127 127 0 127 0 0 127 255 0 127 0 127 127 0 0 127 0 0 127 0 0 0 127 127 0 255 127 0 127 0 255 0 127 0 0 0 127 255 255 127 127 0 0 127 0 127 127 0 255 0 0 0 127 0 127 0 0 0 0 127 0 0 0 127 0 127 0 0 0 127 127 0 0 0 0 0 0 0 127 0 127 0 255 0
0 0 0 0 0 0 127 0 0 127 0 0 0 0 127 0 0 0 0 255 0 127 0 255 127 0 0 127 0 127 0 0 0 0 0 0 0 0 0 0 127 0 0 255 0 0 127 127 255 127 0 0 127 0 0 127 0 127 127 0 255 127 127 127 127 127 127 127 127 127 127 127 127 127 127 127 127 127 127 127 127 127 127 127 127 127 127 127 127 127 0 127 127 255 0 255 0 0 127 0 127 0 0 0 0 127 0 0 0 127 0 127 0 0 0 127 127 0 0 0 0 0 0 0 127 0 127 0 0 0
0 0 0 0 0 0 127 255 0 127 0 0 255 0 127 0 255 0 0 127 127 127 127 127 127 127 127 127 127 127 127 127 127 127 127 255 0 0 0 0 127 0 0 0 0 0 127 127 0 127 0 0 127 0 0 127 0 127 127 0 0 0 0 0 127 0 0 0 127 127 0 0 127 0 127 0 0 0 127 0 0 0 127 255 0 127 127 0 0 255 0 127 127 0 0 0 0 0 127 255 127 0 0 0 0 127 255 0 255 127 255 127 0 0 0 127 127 0 255 0 0 0 0 0 127 255 127 0 0 0
0 0 0 0 0 255 127 0 0 127 0 0 0 0 127 0 127 127 127 127 127 127 127 127 127 127 127 127 127 127 127 127 127 127 127 127 127 127 127 127 127 127 127 127 127 127 127 127 127 127 127 127 127 127 255 127 0 127 127 0 0 0 0 0 127 0 0 0 127 127 0 0 127 0 127 0 0 255 127 0 0 255 127 0 0 127 127 0 0 0 0 127 127 0 0 0 0 0 127 0 127 0 0 0 0 127 0 0 0 127 0 127 0 0 0 127 127 0 0 255 0 255 0 0 127 0 127 0 0 0
0 255 255 0 0 0 127 0 0 127 0 255 255 0 127 0 127 0 0 127 255 127 127 127 127 127 127 127 127 127 127 127 127 127 127 127 127 127 127 127 127 127 127 127 127 127 127 127 127 127 127 127 127 127 0 127 0 127 127 0 0 0 255 255 127 127 127 127 127 127 127 127 127 127 127 127 127 127 127 127 127 127 127 127 127 127 127 127 127 127 127 127 127 127 127 127 127 127 127 127 127 127 127 127 127 127 127 127 127 127 127 127 127 127 127 127 127 0 0 0 0 0 0 0 127 0 127 0 0 0
0 0 0 0 0 0 127 0 0 127 0 0 127 127 127 127 127 127 127 127 127 127 127 127 127 127 127 127 127 127 127 127 127 127 127 127 127 127 255 0 127 0 0 255 0 0 127 127 0 127 0 0 255 127 0 127 0 127 127 0 0 0 0 255 0 0 255 0 127 127 0 0 127 0 127 0 0 0 127 0 0 0 127 0 0 127 127 0 0 0 0 127 127 0 255 0 0 0 127 0 127 0 0 0 0 127 0 0 0 127 0 127 0 0 0 255 127 0 0 0 255 0 0 0 127 0 127 0 0 0
0 0 0 0 0 0 127 0 0 127 0 0 127 0 127 0 127 0 0 127 0 0 0 255 127 0 0 127 0 127 0 0 0 0 127 0 0 127 0 0 127 0 0 0 0 0 127 127 255 127 0 0 0 127 0 127 0 127 127 0 0 0 0 0 0 0 0 0 127 127 0 0 127 0 127 0 0 0 127 255 0 255 127 127 127 127 127 127 127 127 127 127 127 127 127 127 127 127 127 127 127 127 127 127 127 127 127 127 127 127 127 127 127 127 127 127 127 127 127 127 127 127 127 127 127 0 127 255 0 0
0 0 0 0 0 0 127 0 0 127 0 0 127 0 127 0 127 0 0 127 0 0 0 0 127 0 255 127 0 127 0 255 255 255 127 0 0 127 0 0 127 0 0 0 0 0 127 127 0 127 0 0 0 127 0 127 0 127 127 0 0 0 0 0 0 0 0 0 127 127 0 0 127 0 127 0 0 0 127 0 0 0 0 0 0 127 127 0 0 0 0 127 127 0 0 0 0 0 127 0 127 0 0 0 255 127 0 0 0 127 0 127 0 0 0 0 127 0 0 0 0 0 0 0 255 0 127 0 0 0
0 0 0 0 0 0 127 0 0 127 0 255 127 0 127 0 127 0 0 127 0 0 0 0 127 0 0 127 0 127 255 0 0 0 127 0 0 127 0 0 127 0 0 0 0 255 127 127 127 127 127 127 127 127 127 127 127 127 127 127 127 127 127 127 127 127 127 127 127 127 127 127 127 127 127 127 127 127 127 127 127 127 127 127 127 127 127 127 127 127 127 127 127 127 127 127 127 127 127 127 127 127 127 127 127 127 127 127 127 127 127 127 0 0 0 0 127 0 0 0 0 0 0 0 0 0 127 0 0 0
0 0 0 0 0 0 127 0 0 127 0 0 127 0 127 0 127 0 0 127 0 0 255 0 127 0 0 127 0 127 0 0 0 0 127 0 0 127 0 255 127 0 255 0 0 0 0 127 0 127 0 0 0 127 0 127 0 127 127 0 0 0 0 0 0 0 0 0 127 127 0 255 127 0 127 0 0 0 127 0 0 0 0 0 255 127 127 0 0 0 0 127 127 0 0 0 0 0 127 0 127 0 0 0 0 127 0 0 0 127 255 255 0 0 0 255 127 127 127 127 127 127 127 127 127 127 127 0 0 0
0 0 0 0 0 0 127 0 0 127 0 0 127 0 127 0 127 255 0 127 0 0 0 0 127 0 0 127 0 127 0 0 0 0 127 0 0 127 0 0 127 0 127 127 127 127 127 127 127 127 127 127 127 127 127 127 127 127 127 127 127 127 127 127 127 127 127 127 127 127 127 127 127 127 127 127 127 127 127 127 127 127 127 127 127 127 127 127 127 255 0 127 127 0 255 0 0 0 127 0 127 0 0 0 0 127 0 0 0 127 0 0 0 0 0 0 0 0 0 0 0 0 0 0 0 0 255 0 0 0
0 0 0 0 0 0 127 0 0 127 0 0 127 0 127 0 127 0 0 127 0 0 0 0 127 0 0 127 0 127 0 0 0 0 127 0 0 127 0 0 127 0 127 0 0 0 0 127 255 127 127 127 127 127 127 127 127 127 127 127 127 127 127 127 127 127 127 127 127 127 127 127 127 127 127 127 127 127 127 127 127 127 127 127 127 127 127 127 127 127 127 127 127 127 127 127 127 127 127 127 127 0 0 0 0 127 0 0 0 127 0 0 0 0 0 0 0 0 0 0 0 0 0 0 0 0 0 255 0 0
0 0 255 0 0 0 127 0 0 127 255 0 127 0 127 255 127 0 0 127 0 0 0 0 127 0 0 127 0 127 0 0 255 0 127 0 0 127 0 0 127 0 127 0 0 0 0 127 0 0 0 0 0 127 0 127 0 127 127 0 255 0 0 0 0 0 0 0 127 127 0 255 127 255 127 0 255 0 127 0 0 0 0 0 0 127 127 0 127 0 0 127 127 0 0 0 0 0 127 0 255 0 255 0 0 127 0 0 0 127 0 0 0 0 0 0 0 0 0 0 0 0 0 255 0 0 0 0 0 0
0 0 0 0 0 0 127 0 255 127 127 127 127 127 127 127 127 127 127 127 127 127 127 127 127 127 127 127 0 127 0 0 0 0 127 0 0 127 255 0 127 0 127 0 0 0 0 127 0 0 0 0 0 127 0 127 0 127 127 0 0 0 0 0 0 0 0 0 127 127 0 0 127 0 127 0 0 0 127 255 0 0 0 0 0 127 127 0 127 0 0 127 127 0 0 0 0 0 127 0 0 0 0 0 0 127 0 0 0 127 0 0 0 0 0 0 0 0 0 0 0 0 0 0 0 0 0 0 0 0
0 0 0 0 0 0 127 0 0 0 0 0 127 0 127 0 127 0 0 127 0 0 0 0 127 0 0 255 0 127 0 0 0 0 127 0 0 127 0 0 127 0 127 0 0 0 0 127 0 0 0 0 0 127 0 127 0 127 127 0 0 0 0 0 0 0 0 0 127 127 0 0 127 0 127 0 0 0 127 0 0 0 0 0 0 127 127 0 127 0 0 127 127 0 0 0 0 0 127 0 0 0 0 0 255 127 0 0 0 127 0 0 0 0 0 0 0 0 255 0 0 0 0 255 0 0 0 0 0 0
255 0 0 0 0 0 127 0 0 0 0 0 127 0 127 0 127 0 0 127 255 0 0 0 127 0 0 0 255 127 0 0 0 0 127 0 0 127 0 0 127 255 127 0 0 0 0 127 0 0 0 0 0 127 0 127 0 127 127 0 0 0 0 0 0 0 0 0 127 127 0 0 127 0 127 0 0 0 127 0 0 0 0 0 0 127 127 0 127 0 0 127 127 0 0 0 0 0 127 0 255 0 0 255 0 127 0 0 255 127 0 0 0 0 0 255 0 0 0 0 0 0 0 0 0 0 255 0 0 255
255 0 0 0 0 0 127 0 0 0 0 255 127 0 127 0 127 0 0 127 0 0 0 0 127 0 0 0 0 127 0 0 0 0 127 0 0 127 0 0 127 0 127 0 0 255 0 127 0 0 0 0 0 127 0 127 0 127 127 0 0 0 0 0 0 0 0 0 127 127 0 255 127 0 127 0 0 0 127 0 0 0 0 0 0 127 127 0 127 0 0 127 127 0 0 0 0 0 127 0 0 0 0 0 0 127 255 0 0 127 0 0 0 0 0 0 0 0 0 0 0 0 0 0 0 0 0 255 255 0
0 0 0 0 0 0 127 0 0 0 255 0 127 255 127 127 127 127 127 127 127 127 127 127 127 127 127 127 127 127 127 127 127 127 127 127 127 127 127 127 127 127 127 127 127 127 127 127 127 127 127 127 127 127 127 127 0 127 127 0 0 0 0 0 0 0 0 0 127 127 0 0 127 0 127 0 0 0 127 0 0 0 0 0 0 127 127 0 127 255 0 127 127 0 0 0 0 0 127 0 0 0 0 0 0 127 0 0 0 127 0 0 0 0 255 255 0 0 0 0 0 0 0 0 0 0 255 0 0 0
0 0 0 0 0 0 127 0 0 0 0 0 127 255 0 255 127 127 127 127 127 127 127 127 127 127 127 127 127 127 127 127 127 127 127 127 127 127 127 127 127 0 127 0 0 0 0 127 0 0 0 0 0 127 0 255 0 127 127 0 0 0 0 0 0 0 0 0 127 127 0 0 127 0 127 0 0 0 127 0 0 0 0 0 0 127 127 0 127 255 0 127 127 0 0 0 0 0 127 0 0 0 0 0 255 127 0 0 0 127 0 0 255 0 0 0 0 0 0 0 0 0 0 0 0 0 0 0 0 0
0 0 0 0 0 0 127 0 0 0 0 0 127 0 0 0 0 255 0 127 0 0 255 0 127 0 0 0 0 127 0 255 0 0 127 0 0 127 0 0 255 0 127 0 0 255 0 127 0 0 0 0 0 127 0 0 0 127 127 0 0 0 0 0 0 0 0 0 127 127 0 0 127 0 127 0 0 0 127 255 0 0 0 0 0 127 127 0 127 0 0 127 127 0 0 0 0 0 127 0 0 0 0 0 0 127 0 0 0 127 0 0 255 0 0 0 0 0 0 0 0 0 0 0 0 0 0 0 0 0
0 0 0 0 0 0 127 0 0 0 0 0 127 0 0 0 0 0 0 127 0 0 0 0 127 0 0 255 0 127 0 0 0 0 127 0 0 127 255 0 255 0 127 255 0 0 255 127 0 0 0 0 0 127 0 255 0 127 127 255 0 0 0 0 0 0 0 0 127 127 0 0 127 0 127 0 0 0 127 0 255 0 0 0 255 127 127 0 127 0 0 127 127 255 0 0 0 0 127 0 0 0 0 0 0 127 0 0 0 127 0 0 0 0 0 0 0 255 0 0 0 0 0 0 0 0 0 0 0 0
0 0 0 0 0 0 127 0 255 0 0 0 127 0 0 0 0 0 0 127 0 0 0 0 127 0 0 0 0 127 0 0 0 0 127 0 0 127 127 127 127 255 127 127 127 127 127 127 127 127 127 127 127 127 127 127 127 127 127 127 127 127 127 127 127 127 127 127 127 127 0 0 127 0 127 0 0 255 127 255 0 0 0 0 0 127 127 0 127 0 0 127 127 0 0 255 0 0 127 0 0 0 0 0 0 127 0 0 0 127 0 0 0 0 0 0 0 0 0 0 0 0 0 0 0 0 0 0 0 0
0 0 0 0 0 0 127 0 0 0 0 0 127 0 0 0 0 0 0 127 0 0 0 0 127 0 0 0 0 127 0 0 0 0 127 0 0 127 127 0 127 0 0 0 0 0 0 127 0 0 0 0 0 127 0 0 0 127 127 0 255 0 0 0 0 0 0 0 255 127 0 0 127 0 127 255 0 255 127 127 127 127 127 127 127 127 127 0 127 0 0 127 127 0 0 0 0 0 127 0 0 0 0 0 255 127 0 255 0 127 0 0 0 0 0 0 0 0 0 0 0 0 0 0 0 0 0 0 255 0
0 0 0 0 0 0 127 0 0 255 0 255 127 127 127 127 127 127 127 127 127 127 127 127 127 127 127 127 127 127 127 127 127 127 127 127 127 127 127 127 127 127 127 127 127 127 127 127 255 0 0 0 0 127 0 0 0 127 127 0 0 0 0 0 0 0 0 0 0 127 255 0 127 0 127 0 255 255 0 0 0 0 0 0 0 255 127 0 127 0 0 127 127 0 0 0 0 0 127 0 0 0 0 0 0 127 0 0 0 127 0 0 0 0 0 0 0 0 0 0 255 0 0 0 0 0 0 0 0 0
0 0 0 0 0 0 127 0 255 0 0 0 0 0 0 0 0 0 0 127 0 0 0 0 127 0 0 0 0 127 0 0 0 0 127 0 0 127 127 0 127 0 0 0 0 0 0 255 0 0 0 0 0 127 0 255 255 127 127 127 127 127 127 127 127 127 127 127 127 127 127 127 127 127 127 127 127 127 127 127 127 127 127 127 127 127 127 127 127 127 127 127 127 127 127 127 127 127 127 127 127 127 127 127 127 127 0 0 0 127 0 0 0 0 0 0 0 255 255 0 0 0 0 0 255 0 0 0 0 0
0 0 0 0 0 0 127 0 0 0 0 0 0 255 0 0 0 0 0 127 0 0 0 0 127 0 0 0 0 127 0 0 0 0 127 0 0 127 127 0 127 0 0 0 0 0 255 0 0 0 0 255 0 127 0 0 0 0 127 0 0 0 0 0 0 0 0 0 0 127 255 255 127 0 127 0 0 0 0 0 0 0 0 0 0 0 127 0 127 0 0 127 127 0 0 0 0 0 127 255 0 0 255 0 0 255 0 0 0 127 0 0 0 0 0 0 0 0 0 0 0 0 0 0 0 0 0 0 0 0
0 0 0 0 0 0 127 0 0 0 0 0 0 0 0 0 0 0 0 127 0 0 0 0 127 0 0 0 0 127 0 0 0 0 127 0 0 127 127 0 127 0 0 0 0 0 0 0 0 0 0 0 0 127 0 255 0 0 127 255 0 0 0 0 0 0 0 0 0 127 255 0 127 0 127 0 0 0 0 0 0 0 0 0 0 0 127 0 127 0 0 127 127 0 0 0 0 0 127 0 0 0 0 0 0 0 255 0 0 127 0 0 0 0 255 0 0 0 0 0 0 0 0 255 0 0 0 0 0 0
0 0 0 0 0 255 127 0 0 0 0 0 0 0 0 0 0 255 0 127 0 0 0 0 127 0 0 0 0 127 0 0 0 0 127 0 0 127 127 0 127 0 0 0 0 0 0 0 0 0 0 0 0 127 0 127 127 127 127 127 127 127 127 127 127 127 127 127 127 127 127 127 127 127 127 127 127 127 127 127 127 127 127 127 127 127 127 127 127 127 127 127 127 127 127 127 127 127 127 127 127 127 127 127 127 127 127 127 127 127 127 127 127 255 0 0 0 0 0 0 0 0 0 0 0 0 0 0 0 0
0 0 0 0 0 0 127 255 0 0 0 0 0 0 0 0 0 0 0 127 0 0 0 0 127 0 255 0 0 127 0 0 0 255 127 0 0 127 127 255 127 0 0 0 0 0 0 0 0 0 0 0 255 127 0 127 0 0 127 0 0 0 0 0 0 0 0 0 0 127 0 255 127 0 127 0 0 0 0 255 0 0 0 0 0 0 127 0 127 0 0 127 127 255 0 0 0 0 127 0 0 0 0 0 0 0 0 0 0 127 255 0 127 0 0 0 0 0 0 0 0 0 0 0 0 0 0 0 0 0
0 0 0 0 0 255 127 127 127 127 127 127 127 127 127 127 127 127 127 127 127 127 127 127 127 127 127 127 127 127 127 127 127 127 127 0 0 127 127 0 127 0 0 0 0 0 0 0 0 0 0 0 0 127 0 127 0 0 127 0 0 0 0 255 0 0 0 0 0 127 0 0 127 0 127 0 0 0 0 0 0 0 0 0 0 0 127 0 127 0 0 127 127 0 0 0 0 0 127 0 0 0 0 0 0 0 0 255 0 127 0 0 127 0 0 0 0 0 0 0 0 255 0 0 0 0 0 255 0 0
0 0 0 0 0 0 0 0 0 0 0 0 0 0 0 255 0 0 0 127 0 0 0 0 127 0 0 0 0 127 0 0 0 0 255 0 0 127 127 0 127 0 0 0 0 0 0 0 0 0 0 0 0 127 0 127 0 0 127 0 0 0 0 0 0 0 0 0 0 127 0 0 127 0 127 0 0 0 0 0 0 0 255 0 0 0 127 0 127 0 0 127 127 0 0 0 0 0 127 0 0 0 255 0 0 0 0 0 0 127 0 0 127 0 0 0 0 0 0 0 0 0 0 0 0 0 0 0 0 0
0 0 255 0 0 0 0 0 0 0 0 0 0 0 0 255 0 0 0 127 0 0 255 0 127 0 0 255 0 127 0 255 0 0 0 0 0 127 127 0 127 0 0 0 0 0 0 0 0 0 0 0 0 127 0 127 0 0 127 0 0 0 255 0 0 255 0 0 0 127 0 0 127 0 127 0 0 0 0 0 0 0 0 0 0 0 127 0 127 0 0 127 127 0 0 0 0 0 127 0 0 255 0 0 0 255 0 0 0 127 0 0 127 0 0 0 0 0 0 255 0 0 0 0 0 0 0 0 0 0
0 0 0 0 0 0 0 0 0 255 0 0 0 0 0 0 0 0 255 127 127 127 127 127 127 127 127 127 127 127 127 127 127 127 127 127 127 127 127 127 127 127 127 127 127 127 127 127 127 127 127 127 127 127 0 127 255 255 127 0 0 0 0 0 0 0 0 0 0 127 0 0 127 0 127 0 0 0 0 0 0 255 0 0 0 0 127 0 127 0 0 127 127 0 0 0 0 0 127 0 0 0 0 255 0 0 255 0 0 127 0 0 127 0 0 0 0 0 0 0 255 0 0 0 0 0 0 0 0 0
0 0 0 0 0 0 0 0 0 0 0 0 0 0 0 0 0 0 0 0 255 0 0 0 127 255 0 0 0 127 0 0 0 0 0 0 0 127 127 0 127 0 0 0 0 0 0 0 255 0 0 255 0 255 255 127 127 127 127 0 0 0 0 0 0 0 0 0 0 127 0 0 127 255 127 0 0 0 0 0 0 0 0 0 0 0 127 0 127 0 255 127 127 0 0 0 0 0 127 0 0 0 255 0 0 0 0 0 0 127 0 0 127 0 0 255 0 0 0 0 0 0 0 0 0 0 0 0 0 0
0 0 0 0 0 0 0 0 0 0 255 0 0 0 0 0 0 0 0 0 0 0 0 0 127 0 0 0 0 127 0 0 0 0 0 0 0 127 127 0 127 0 0 0 0 255 0 0 0 0 0 0 0 0 0 0 0 0 255 0 0 255 0 0 0 0 0 0 0 127 0 0 127 0 127 0 0 255 0 0 0 0 0 0 0 0 127 0 127 0 0 127 127 0 0 255 0 0 127 0 0 0 0 0 0 0 255 0 0 127 0 0 127 0 0 0 0 0 0 0 0 0 0 0 0 0 0 0 0 0
0 0 0 0 0 0 0 0 0 0 0 0 0 0 0 0 0 0 255 0 0 0 0 0 127 0 0 0 255 127 127 127 127 127 127 127 127 127 127 0 127 0 0 0 0 0 0 0 0 0 0 0 0 255 0 0 0 0 0 0 0 0 0 0 0 0 0 0 0 127 0 0 127 0 127 0 0 0 0 255 0 0 0 0 0 0 127 0 127 255 0 127 127 0 0 0 0 0 127 0 0 0 0 0 0 0 0 0 0 127 0 0 127 0 0 0 0 0 0 0 0 0 0 0 255 0 0 0 0 0
0 0 0 0 0 0 0 0 0 0 0 255 0 255 0 0 0 0 0 0 0 0 0 0 127 0 0 0 255 0 0 0 0 0 0 0 0 255 127 0 127 0 0 0 0 0 0 0 0 0 0 0 0 0 0 0 0 0 0 0 0 0 0 0 0 0 0 0 0 127 0 255 127 0 127 0 0 0 0 0 0 0 0 0 255 0 127 0 127 0 0 127 127 0 0 0 0 0 127 0 0 0 0 0 0 0 0 0 0 127 0 0 127 255 0 0 0 0 0 0 0 0 0 0 0 0 0 0 0 0
0 255 0 0 0 0 0 255 0 0 0 0 0 0 0 0 0 0 0 0 0 0 0 0 127 0 0 0 127 127 127 127 127 127 127 127 127 127 127 127 127 127 127 127 127 127 127 127 127 127 127 127 127 127 127 127 127 127 127 127 127 127 127 127 127 127 127 127 127 127 127 127 127 127 127 127 127 127 127 127 127 127 127 127 127 127 127 127 127 127 127 127 127 127 127 127 255 0 127 0 0 255 0 0 0 0 0 0 0 127 255 255 127 0 0 0 0 0 0 0 0 0 0 0 0 0 0 0 0 0
0 0 0 0 0 0 0 0 0 0 0 0 0 0 0 0 0 0 0 0 0 255 0 0 127 0 255 0 127 0 0 0 0 0 0 0 0 0 127 0 127 0 0 0 255 0 0 0 0 0 0 0 0 0 0 255 0 0 0 0 0 0 0 0 0 0 0 0 255 127 127 127 127 127 127 127 127 127 127 127 127 127 127 127 127 127 127 127 127 127 127 127 127 0 0 127 0 255 127 0 0 0 0 0 0 0 0 0 0 127 0 255 127 0 0 0 0 0 0 0 0 0 0 0 0 255 0 255 0 0
0 0 0 0 0 0 0 0 0 0 0 0 0 0 0 0 0 0 0 0 0 0 0 0 127 0 0 0 127 0 0 0 255 0 0 0 0 255 127 127 127 127 127 127 127 127 127 127 127 127 127 127 127 127 127 127 127 127 127 127 127 127 127 127 127 127 127 127 127 127 127 127 127 127 127 127 127 127 127 127 127 127 127 127 127 127 127 127 127 127 127 127 255 0 0 127 0 255 127 127 127 127 127 127 127 127 127 127 127 127 255 0 127 0 0 0 0 0 0 0 0 0 0 0 255 0 0 0 0 0
0 0 0 0 0 0 0 0 0 0 0 0 0 0 255 0 0 255 0 0 0 0 0 0 127 0 0 255 127 127 127 127 127 127 127 127 127 127 127 127 127 0 0 0 0 0 0 0 255 0 0 0 0 0 0 0 0 0 0 0 0 0 0 0 0 0 0 0 127 0 0 0 255 0 127 0 0 0 0 0 255 0 0 0 0 0 127 0 127 0 255 127 0 0 0 127 0 0 0 0 0 0 0 0 0 0 0 0 0 255 0 0 127 0 0 0 0 0 0 0 0 0 0 0 0 0 0 0 0 0
0 0 0 0 0 0 0 0 0 0 0 0 0 255 0 0 0 0 0 255 0 0 0 0 127 0 0 0 0 0 0 0 0 0 0 0 0 0 0 0 255 0 255 0 0 0 0 0 0 0 0 0 0 0 0 0 0 0 0 0 0 0 0 0 255 0 0 0 127 0 0 0 0 0 127 0 0 0 0 0 0 255 0 0 0 255 127 0 127 0 0 127 0 0 0 127 0 0 0 0 0 0 0 0 0 0 0 0 0 0 0 255 127 0 0 0 0 0 0 0 255 255 0 0 0 0 0 0 0 0
0 0 0 0 0 0 0 255 0 0 0 0 0 0 0 0 0 0 0 0 0 0 0 0 127 0 0 0 0 0 0 255 0 0 0 0 0 0 0 0 0 0 0 0 0 0 0 0 0 0 0 0 0 0 0 0 0 0 0 0 0 0 0 0 0 0 0 0 127 0 0 0 0 255 127 127 127 127 127 127 127 127 127 127 127 127 127 127 127 0 0 127 0 0 0 127 0 0 0 255 255 0 0 0 0 0 255 0 0 0 0 0 127 0 0 0 0 0 255 0 0 0 255 0 0 0 0 0 255 0
0 0 0 0 0 255 0 0 0 0 0 0 0 0 0 0 0 0 0 0 0 0 0 255 127 127 127 127 127 127 127 127 127 127 127 127 127 127 127 127 127 127 127 127 127 127 127 127 127 127 127 127 127 127 127 127 127 127 127 127 127 127 127 127 127 127 127 127 127 127 127 127 127 127 127 127 127 127 127 127 127 127 127 127 127 127 127 0 255 0 0 127 0 0 0 127 0 0 0 0 0 0 0 0 0 0 0 0 0 0 0 0 127 0 0 0 0 0 0 0 0 0 255 0 0 0 0 255 0 0
0 0 0 0 0 0 0 0 0 0 0 0 0 0 0 0 255 0 0 0 0 0 0 0 0 0 0 0 0 0 0 0 0 0 0 0 0 0 0 0 255 0 0 0 0 0 0 0 0 0 0 0 255 0 0 0 0 0 0 0 0 255 0 0 0 0 0 0 127 0 0 0 0 0 0 0 0 0 255 0 0 0 0 0 0 0 255 0 255 0 255 127 127 127 127 127 0 0 0 0 0 0 0 0 0 0 0 0 0 0 0 0 127 0 0 255 0 0 0 0 0 0 0 0 255 0 0 0 0 0
0 0 0 0 0 0 255 0 0 0 0 0 0 0 0 0 0 0 0 0 0 0 0 0 0 0 0 0 0 0 0 0 0 255 0 0 0 0 0 0 255 0 0 0 0 0 0 0 0 0 0 0 0 255 0 0 0 0 0 0 0 255 0 0 0 255 0 0 127 0 0 0 0 0 0 0 0 0 0 0 0 0 0 0 0 0 0 0 0 0 0 127 0 0 0 255 0 0 0 0 0 0 0 0 0 0 255 255 0 0 0 0 127 0 0 255 0 0 0 0 0 0 0 0 0 0 255 0 0 0
0 0 0 0 0 0 0 0 0 0 0 0 0 0 0 0 255 0 0 0 0 0 255 0 0 0 255 0 0 0 0 0 0 0 0 0 0 0 0 0 0 0 0 0 0 0 0 0 0 0 0 0 0 0 0 0 0 255 0 0 0 0 0 0 255 0 0 255 127 127 127 127 127 127 127 127 127 127 127 127 127 127 127 127 127 127 127 127 127 127 127 127 127 127 127 127 127 127 127 127 127 127 127 127 127 127 127 127 127 127 127 127 127 0 0 0 0 0 0 0 0 0 0 0 0 0 0 0 0 0
0 0 0 0 0 0 0 0 0 0 0 0 0 0 0 0 0 0 0 0 0 0 0 0 0 0 0 0 0 255 0 0 0 0 255 0 0 0 0 0 0 0 0 0 0 0 0 0 0 0 255 0 0 0 0 0 0 0 0 0 0 0 0 0 0 255 0 0 0 0 0 0 0 0 0 0 0 0 0 0 0 0 0 0 0 0 0 0 0 0 0 127 0 0 0 0 0 0 0 0 0 0 0 0 255 0 0 0 0 0 0 0 255 255 255 0 0 255 0 255 0 0 0 0 0 0 0 0 0 0
0 0 0 0 0 0 0 0 0 0 255 0 0 0 0 0 0 0 255 0 0 0 0 0 0 0 0 0 0 0 0 0 0 0 255 0 0 0 0 0 0 0 0 0 0 0 0 0 0 0 0 0 0 0 0 0 0 0 0 0 0 0 0 255 0 0 0 0 0 0 0 0 255 0 0 0 0 0 0 0 0 0 0 0 0 0 0 0 0 0 0 127 0 0 0 0 0 0 0 0 0 0 0 0 0 0 0 0 0 0 0 0 0 0 0 0 0 0 0 0 0 0 0 0 0 0 0 0 0 0
0 0 0 0 0 0 0 0 0 0 0 0 0 0 0 0 0 255 0 0 0 0 0 0 0 0 0 0 0 0 0 0 0 0 0 0 0 0 0 0 0 0 0 0 0 0 0 0 0 0 0 0 0 0 0 255 0 0 0 0 0 0 0 0 0 0 0 0 0 0 0 0 0 0 0 0 0 0 0 0 0 0 0 0 0 0 0 0 0 0 0 63 0 0 0 255 0 0 0 0 0 0 0 0 0 0 0 0 0 0 0 0 255 0 0 0 0 0 0 0 0 255 0 255 0 0 255 0 0 0 